<svg xmlns="http://www.w3.org/2000/svg" version="1.1" xmlns:xlink="http://www.w3.org/1999/xlink" xmlns:svgjs="http://svgjs.com/svgjs" width="1440" height="560" preserveAspectRatio="none" viewBox="0 0 1440 560"><g mask="url(&quot;#SvgjsMask1141&quot;)" fill="none"><circle r="78.92280690029018" cx="1404.13" cy="58.57" stroke="#037b0b" stroke-width="2.87" stroke-dasharray="2, 2"></circle><rect width="92.4" height="92.4" clip-path="url(&quot;#SvgjsClipPath1142&quot;)" x="1281.37" y="307.87" fill="url(#SvgjsPattern1143)" transform="rotate(146.66, 1327.57, 354.07)"></rect><path d="M170.33 122.27 L104.06 77.6L96.65387094509808 140.47612905490192z" stroke="#d3b714" stroke-width="1" stroke-dasharray="3, 2"></path><circle r="75.5919593381419" cx="1011.36" cy="350.17" fill="#d3b714"></circle><path d="M239.31 422.1L250.86 427.63 248.01 440.11 259.56 445.63 256.7 458.12 268.26 463.64 265.4 476.13M232.1 425.58L243.66 431.1 240.8 443.59 252.36 449.11 249.5 461.6 261.05 467.12 258.2 479.61" stroke="#d3b714" stroke-width="1.75" stroke-dasharray="4, 4"></path><path d="M847.27 185.12L859.62 181.72 865.64 193.02 877.99 189.62 884.02 200.92 896.36 197.52 902.39 208.82" stroke="#d3b714" stroke-width="1.84"></path><path d="M783.89 36.59L771.1 35.87 769 23.24 756.21 22.52 754.1 9.89 741.31 9.18 739.2-3.45" stroke="#037b0b" stroke-width="1" stroke-dasharray="3, 3"></path><path d="M1140.49 350.64 L1186.9099999999999 434.91999999999996L1125.6204666963388 430.859533303661z" stroke="#e73635" stroke-width="1" stroke-dasharray="4, 4"></path><rect width="295.79999999999995" height="295.79999999999995" clip-path="url(&quot;#SvgjsClipPath1144&quot;)" x="61.03" y="92.89" fill="url(#SvgjsPattern1145)" transform="rotate(254.73, 208.93, 240.79)"></rect><rect width="264" height="264" clip-path="url(&quot;#SvgjsClipPath1146&quot;)" x="1157.23" y="331.23" fill="url(#SvgjsPattern1147)" transform="rotate(57.47, 1289.23, 463.23)"></rect><rect width="122.88" height="122.88" clip-path="url(&quot;#SvgjsClipPath1148&quot;)" x="963.9" y="458.93" fill="url(#SvgjsPattern1149)" transform="rotate(1.78, 1025.34, 520.37)"></rect><path d="M534.23 128.6L542.03 118.44 553.65 123.82 561.45 113.67 573.07 119.05 580.87 108.89 592.49 114.27" stroke="#e73635" stroke-width="1" stroke-dasharray="3, 3"></path></g><defs><mask id="SvgjsMask1141"><rect width="1440" height="560" fill="#ffffff"></rect></mask><pattern x="0" y="0" width="9.24" height="9.24" patternUnits="userSpaceOnUse" id="SvgjsPattern1143"><path d="M0 9.24L4.62 0L9.24 9.24" stroke="#d3b714" fill="none"></path></pattern><clipPath id="SvgjsClipPath1142"><circle r="23.1" cx="1327.57" cy="354.07"></circle></clipPath><pattern x="0" y="0" width="9.86" height="9.86" patternUnits="userSpaceOnUse" id="SvgjsPattern1145"><path d="M0 9.86L4.93 0L9.86 9.86" stroke="#037b0b" fill="none"></path></pattern><clipPath id="SvgjsClipPath1144"><circle r="73.94999999999999" cx="208.93" cy="240.79"></circle></clipPath><pattern x="0" y="0" width="6" height="6" patternUnits="userSpaceOnUse" id="SvgjsPattern1147"><path d="M3 1L3 5M1 3L5 3" stroke="#e73635" fill="none" stroke-width="1.11"></path></pattern><clipPath id="SvgjsClipPath1146"><circle r="66" cx="1289.23" cy="463.23"></circle></clipPath><pattern x="0" y="0" width="122.88" height="10.24" patternUnits="userSpaceOnUse" id="SvgjsPattern1149"><rect width="122.88" height="5.12" x="0" y="0" fill="#e73635"></rect><rect width="122.88" height="5.12" x="0" y="5.12" fill="rgba(0, 0, 0, 0)"></rect></pattern><clipPath id="SvgjsClipPath1148"><circle r="30.72" cx="1025.34" cy="520.37"></circle></clipPath></defs></svg>