<svg xmlns="http://www.w3.org/2000/svg" version="1.1" xmlns:xlink="http://www.w3.org/1999/xlink" xmlns:svgjs="http://svgjs.com/svgjs" width="1440" height="560" preserveAspectRatio="none" viewBox="0 0 1440 560"><g mask="url(&quot;#SvgjsMask1084&quot;)" fill="none"><rect width="129.2" height="129.2" clip-path="url(&quot;#SvgjsClipPath1085&quot;)" x="813.63" y="288" fill="url(#SvgjsPattern1086)" transform="rotate(233.11, 878.23, 352.6)"></rect><path d="M371.55 151.58a5.6 5.6 0 1 0-7.73 8.1 5.6 5.6 0 1 0 7.73-8.1zM360.5 163.15a5.6 5.6 0 1 0-7.74 8.1 5.6 5.6 0 1 0 7.74-8.1zM349.45 174.72a5.6 5.6 0 1 0-7.74 8.09 5.6 5.6 0 1 0 7.74-8.09zM338.39 186.28a5.6 5.6 0 1 0-7.74 8.1 5.6 5.6 0 1 0 7.74-8.1zM382.09 117.39a5.6 5.6 0 1 0-7.73 8.1 5.6 5.6 0 1 0 7.73-8.1zM371.04 128.96a5.6 5.6 0 1 0-7.74 8.1 5.6 5.6 0 1 0 7.74-8.1zM359.99 140.53a5.6 5.6 0 1 0-7.74 8.1 5.6 5.6 0 1 0 7.74-8.1zM348.93 152.1a5.6 5.6 0 1 0-7.74 8.09 5.6 5.6 0 1 0 7.74-8.09zM392.63 83.2a5.6 5.6 0 1 0-7.73 8.1 5.6 5.6 0 1 0 7.73-8.1zM381.58 94.77a5.6 5.6 0 1 0-7.74 8.1 5.6 5.6 0 1 0 7.74-8.1zM370.53 106.34a5.6 5.6 0 1 0-7.74 8.1 5.6 5.6 0 1 0 7.74-8.1zM359.47 117.91a5.6 5.6 0 1 0-7.74 8.09 5.6 5.6 0 1 0 7.74-8.09z" fill="rgba(32, 94, 97, 1)"></path><path d="M789.2 172.55L788.49 159.76 800.81 156.27 800.11 143.48 812.43 139.99 811.73 127.2 824.05 123.71" stroke="rgba(32, 94, 97, 1)" stroke-width="1.95" stroke-dasharray="3, 3"></path><path d="M546.12 344.76L545.64 357.55 533.05 359.89 532.57 372.69 519.97 375.03 519.49 387.83 506.9 390.17" stroke="rgba(139, 245, 250, 1)" stroke-width="1.54" stroke-dasharray="3, 3"></path><circle r="46.666666666666664" cx="1188.83" cy="370.35" fill="rgba(249, 245, 75, 1)"></circle><path d="M201.62 412.86a5.6 5.6 0 1 0-9.96 5.11 5.6 5.6 0 1 0 9.96-5.11zM187.38 420.16a5.6 5.6 0 1 0-9.96 5.1 5.6 5.6 0 1 0 9.96-5.1zM173.15 427.45a5.6 5.6 0 1 0-9.97 5.11 5.6 5.6 0 1 0 9.97-5.11zM158.91 434.75a5.6 5.6 0 1 0-9.97 5.11 5.6 5.6 0 1 0 9.97-5.11zM222.81 384.03a5.6 5.6 0 1 0-9.97 5.11 5.6 5.6 0 1 0 9.97-5.11zM208.57 391.32a5.6 5.6 0 1 0-9.97 5.11 5.6 5.6 0 1 0 9.97-5.11zM194.33 398.62a5.6 5.6 0 1 0-9.97 5.11 5.6 5.6 0 1 0 9.97-5.11zM180.09 405.92a5.6 5.6 0 1 0-9.97 5.1 5.6 5.6 0 1 0 9.97-5.1z" stroke="rgba(139, 245, 250, 1)" stroke-width="2.74" stroke-dasharray="3, 2"></path><circle r="46.666666666666664" cx="963.1" cy="177.33" stroke="rgba(32, 94, 97, 1)" stroke-width="1" stroke-dasharray="3, 2"></circle><rect width="192.4" height="192.4" clip-path="url(&quot;#SvgjsClipPath1087&quot;)" x="1153.15" y="200.17" fill="url(#SvgjsPattern1088)" transform="rotate(163.59, 1249.35, 296.37)"></rect><path d="M971.6 73.42L960.52 79.85 951.82 70.45 940.74 76.88 932.04 67.48 920.96 73.91 912.26 64.51M972.79 65.51L961.71 71.94 953.01 62.54 941.93 68.97 933.23 59.57 922.15 66 913.45 56.6" stroke="rgba(249, 245, 75, 1)" stroke-width="1" stroke-dasharray="3, 2"></path><circle r="46.666666666666664" cx="375.94" cy="127.56" stroke="rgba(139, 245, 250, 1)" stroke-width="1" stroke-dasharray="3, 2"></circle><path d="M164.41 150.02L174.09 141.64 184.39 149.24 194.07 140.86 204.38 148.46 214.06 140.08 224.36 147.68M164.72 158.02L174.4 149.63 184.7 157.24 194.38 148.85 204.69 156.45 214.37 148.07 224.67 155.67M165.03 166.01L174.71 157.63 185.02 165.23 194.7 156.85 205 164.45 214.68 156.06 224.99 163.67" stroke="rgba(139, 245, 250, 1)" stroke-width="1.99" stroke-dasharray="3, 2"></path><rect width="276" height="276" clip-path="url(&quot;#SvgjsClipPath1089&quot;)" x="156.54" y="185.56" fill="url(#SvgjsPattern1090)" transform="rotate(217.5, 294.54, 323.56)"></rect></g><defs><mask id="SvgjsMask1084"><rect width="1440" height="560" fill="#ffffff"></rect></mask><pattern x="0" y="0" width="12.92" height="12.92" patternUnits="userSpaceOnUse" id="SvgjsPattern1086"><path d="M0 12.92L6.46 0L12.92 12.92" stroke="rgba(139, 245, 250, 1)" fill="none"></path></pattern><clipPath id="SvgjsClipPath1085"><circle r="32.3" cx="878.23" cy="352.6"></circle></clipPath><pattern x="0" y="0" width="7.4" height="7.4" patternUnits="userSpaceOnUse" id="SvgjsPattern1088"><path d="M3.7 1L3.7 6.4M1 3.7L6.4 3.7" stroke="rgba(139, 245, 250, 1)" fill="none" stroke-width="1.31"></path></pattern><clipPath id="SvgjsClipPath1087"><circle r="48.1" cx="1249.35" cy="296.37"></circle></clipPath><pattern x="0" y="0" width="6" height="6" patternUnits="userSpaceOnUse" id="SvgjsPattern1090"><path d="M0 6L3 0L6 6" stroke="rgba(139, 245, 250, 1)" fill="none"></path></pattern><clipPath id="SvgjsClipPath1089"><circle r="69" cx="294.54" cy="323.56"></circle></clipPath></defs></svg>