<svg xmlns="http://www.w3.org/2000/svg" version="1.1" xmlns:xlink="http://www.w3.org/1999/xlink" xmlns:svgjs="http://svgjs.com/svgjs" width="1440" height="560" preserveAspectRatio="none" viewBox="0 0 1440 560"><g mask="url(&quot;#SvgjsMask1010&quot;)" fill="none"><path d="M401.75 367.21L402.03 367.21L402.03 367.49L401.75 367.49z" fill="#e73635"></path><path d="M837.71 54.83 a55.96 55.96 0 1 0 111.92 0 a55.96 55.96 0 1 0 -111.92 0z" stroke="rgba(239, 207, 23, 1)"></path><path d="M877.46 216.88 a38.98 38.98 0 1 0 77.96 0 a38.98 38.98 0 1 0 -77.96 0z" fill="rgba(239, 207, 23, 1)"></path><path d="M1181.43 366.88L1189.16 366.88L1189.16 368.39L1181.43 368.39z" stroke="rgba(239, 207, 23, 1)"></path><path d="M1426.17 403.95 a8.43 8.43 0 1 0 16.86 0 a8.43 8.43 0 1 0 -16.86 0z" fill="rgba(239, 207, 23, 1)"></path><path d="M866.69 370.64 a48.12 48.12 0 1 0 96.24 0 a48.12 48.12 0 1 0 -96.24 0z" fill="rgba(23, 191, 34, 1)"></path><path d="M387.18 87.88L420.87 87.88L420.87 127.99L387.18 127.99z" fill="#e73635"></path><path d="M1196.54 273.51L1250.24 273.51L1250.24 327.21L1196.54 327.21z" stroke="#e73635"></path><path d="M774.23 369.23L820.77 369.23L820.77 387.62L774.23 387.62z" stroke="#e73635"></path><path d="M856.8 340.15L911.83 340.15L911.83 395.18L856.8 395.18z" stroke="#e73635"></path><path d="M735.97 494.29 a5.45 5.45 0 1 0 10.9 0 a5.45 5.45 0 1 0 -10.9 0z" fill="rgba(23, 191, 34, 1)"></path><path d="M216.46 328.55L242.49 328.55L242.49 354.58L216.46 354.58z" fill="#e73635"></path><path d="M777.12 416.43L801.17 416.43L801.17 421.36L777.12 421.36z" fill="#e73635"></path><path d="M1402.34 390.29a31.86 31.86 0 1 0-49.72 39.85z" stroke="#e73635"></path><path d="M139.95 15.49L175.33 15.49L175.33 19.77L139.95 19.77z" stroke="#e73635"></path><path d="M204.33 87.41 a45.31 45.31 0 1 0 90.62 0 a45.31 45.31 0 1 0 -90.62 0z" fill="rgba(239, 207, 23, 1)"></path><path d="M897.96 386.71 a46.34 46.34 0 1 0 92.68 0 a46.34 46.34 0 1 0 -92.68 0z" stroke="rgba(239, 207, 23, 1)"></path><path d="M578.56 536.61a1.37 1.37 0 1 0 1.84 2.03z" stroke="rgba(239, 207, 23, 1)"></path><path d="M1022.69 321.68a29.36 29.36 0 1 0 56.4-16.36z" stroke="#e73635"></path><path d="M73.94 289.47L108.93 289.47L108.93 319.56L73.94 319.56z" fill="rgba(239, 207, 23, 1)"></path><path d="M1171.19 137.33L1175.62 137.33L1175.62 150.29L1171.19 150.29z" stroke="rgba(23, 191, 34, 1)"></path><path d="M453.06 229.05L497.42 229.05L497.42 273.41L453.06 273.41z" stroke="#e73635"></path><path d="M414.13 229.02L436.48 229.02L436.48 251.37L414.13 251.37z" stroke="rgba(23, 191, 34, 1)"></path><path d="M892.2 143.19L914.03 143.19L914.03 162.68L892.2 162.68z" stroke="rgba(23, 191, 34, 1)"></path><path d="M1410.98 315.86a19.37 19.37 0 1 0 17.4 34.61z" stroke="rgba(23, 191, 34, 1)"></path><path d="M235.14 398.41L270.04 398.41L270.04 433.31L235.14 433.31z" fill="#e73635"></path><path d="M449.93 12.76 a19.54 19.54 0 1 0 39.08 0 a19.54 19.54 0 1 0 -39.08 0z" fill="rgba(239, 207, 23, 1)"></path><path d="M456.61 179.6a41.33 41.33 0 1 0 75.22-34.28z" fill="rgba(23, 191, 34, 1)"></path><path d="M364.91 479.08L386.85 479.08L386.85 501.02L364.91 501.02z" stroke="rgba(239, 207, 23, 1)"></path><path d="M914 34.28L916.07 34.28L916.07 57.45L914 57.45z" fill="rgba(239, 207, 23, 1)"></path><path d="M742.17 177.65 a50.82 50.82 0 1 0 101.64 0 a50.82 50.82 0 1 0 -101.64 0z" stroke="#e73635"></path><path d="M1102.99 32.27L1118.03 32.27L1118.03 41.37L1102.99 41.37z" stroke="#e73635"></path><path d="M9.36 181.85 a38.25 38.25 0 1 0 76.5 0 a38.25 38.25 0 1 0 -76.5 0z" stroke="rgba(239, 207, 23, 1)"></path></g><defs><mask id="SvgjsMask1010"><rect width="1440" height="560" fill="#ffffff"></rect></mask></defs></svg>