<svg xmlns="http://www.w3.org/2000/svg" version="1.1" xmlns:xlink="http://www.w3.org/1999/xlink" xmlns:svgjs="http://svgjs.dev/svgjs" viewBox="0 0 800 800"><defs><linearGradient x1="50%" y1="0%" x2="50%" y2="100%" id="nnneon-grad"><stop stop-color="hsl(50, 100%, 50%)" stop-opacity="1" offset="0%"></stop><stop stop-color="hsl(55, 94%, 54%)" stop-opacity="1" offset="100%"></stop></linearGradient><filter id="nnneon-filter" x="-100%" y="-100%" width="400%" height="400%" filterUnits="objectBoundingBox" primitiveUnits="userSpaceOnUse" color-interpolation-filters="sRGB">
	<feGaussianBlur stdDeviation="17 8" x="0%" y="0%" width="100%" height="100%" in="SourceGraphic" edgeMode="none" result="blur"></feGaussianBlur></filter><filter id="nnneon-filter2" x="-100%" y="-100%" width="400%" height="400%" filterUnits="objectBoundingBox" primitiveUnits="userSpaceOnUse" color-interpolation-filters="sRGB">
	<feGaussianBlur stdDeviation="10 17" x="0%" y="0%" width="100%" height="100%" in="SourceGraphic" edgeMode="none" result="blur"></feGaussianBlur></filter></defs><g stroke-width="16" stroke="url(#nnneon-grad)" fill="none"><path d="M379.6388394148115 106.3366517804788C392.2383444692034 99.06363431857056 407.76171656595284 99.06363431857056 420.36122162034474 106.3386878995891L644.1388563161909 235.53655380397402C656.7383613705829 242.80957126588225 664.5000474189574 256.25406575103904 664.5000474189574 270.8021367939658V529.1978686027356C664.5000474189574 543.7459396456625 656.7383613705829 557.1904341308193 644.1388563161909 564.4654877118378L420.36122162034474 693.6633536162226C407.76171656595284 700.9363710781308 392.2383444692034 700.9363710781308 379.6388394148115 693.6613174971125L155.86120471896538 564.4634515927274C143.26169966457343 557.1904341308193 135.50001361619877 543.7459396456625 135.50001361619877 529.1978686027356V270.8021367939658C135.50001361619877 256.25406575103904 143.26169966457343 242.80957126588225 155.86120471896538 235.53451768486377L379.6388394148115 106.3366517804788Z " filter="url(#nnneon-filter)"></path><path d="M391.6388394148115 106.3366517804788C404.2383444692034 99.06363431857056 419.76171656595284 99.06363431857056 432.36122162034474 106.3386878995891L656.1388563161909 235.53655380397402C668.7383613705829 242.80957126588225 676.5000474189574 256.25406575103904 676.5000474189574 270.8021367939658V529.1978686027356C676.5000474189574 543.7459396456625 668.7383613705829 557.1904341308193 656.1388563161909 564.4654877118378L432.36122162034474 693.6633536162226C419.76171656595284 700.9363710781308 404.2383444692034 700.9363710781308 391.6388394148115 693.6613174971125L167.86120471896538 564.4634515927274C155.26169966457343 557.1904341308193 147.50001361619877 543.7459396456625 147.50001361619877 529.1978686027356V270.8021367939658C147.50001361619877 256.25406575103904 155.26169966457343 242.80957126588225 167.86120471896538 235.53451768486377L391.6388394148115 106.3366517804788Z " filter="url(#nnneon-filter2)" opacity="0.25"></path><path d="M367.6388394148115 106.3366517804788C380.2383444692034 99.06363431857056 395.76171656595284 99.06363431857056 408.36122162034474 106.3386878995891L632.1388563161909 235.53655380397402C644.7383613705829 242.80957126588225 652.5000474189574 256.25406575103904 652.5000474189574 270.8021367939658V529.1978686027356C652.5000474189574 543.7459396456625 644.7383613705829 557.1904341308193 632.1388563161909 564.4654877118378L408.36122162034474 693.6633536162226C395.76171656595284 700.9363710781308 380.2383444692034 700.9363710781308 367.6388394148115 693.6613174971125L143.86120471896538 564.4634515927274C131.26169966457343 557.1904341308193 123.50001361619877 543.7459396456625 123.50001361619877 529.1978686027356V270.8021367939658C123.50001361619877 256.25406575103904 131.26169966457343 242.80957126588225 143.86120471896538 235.53451768486377L367.6388394148115 106.3366517804788Z " filter="url(#nnneon-filter2)" opacity="0.25"></path><path d="M379.6388394148115 106.3366517804788C392.2383444692034 99.06363431857056 407.76171656595284 99.06363431857056 420.36122162034474 106.3386878995891L644.1388563161909 235.53655380397402C656.7383613705829 242.80957126588225 664.5000474189574 256.25406575103904 664.5000474189574 270.8021367939658V529.1978686027356C664.5000474189574 543.7459396456625 656.7383613705829 557.1904341308193 644.1388563161909 564.4654877118378L420.36122162034474 693.6633536162226C407.76171656595284 700.9363710781308 392.2383444692034 700.9363710781308 379.6388394148115 693.6613174971125L155.86120471896538 564.4634515927274C143.26169966457343 557.1904341308193 135.50001361619877 543.7459396456625 135.50001361619877 529.1978686027356V270.8021367939658C135.50001361619877 256.25406575103904 143.26169966457343 242.80957126588225 155.86120471896538 235.53451768486377L379.6388394148115 106.3366517804788Z "></path></g></svg>